# xmcd
#
# Track frame offsets:
#	150
#	13098
#	25082
#	36257
#	47396
#	61233
#	72280
#	82990
#	94778
#	105202
#	115758
#	124874
#	137254
#	147001
#
# Disc length: 2103 seconds
#
# Revision: 0
# Processed by: cddbd v1.5.2PL0 Copyright (c) Steve Scherf et al.
# Submitted via: EZCDAudioConverter 2.0.4.1
#
DISCID=a708350e
DTITLE=Banjo Band Ivana Mladka - Ta country ceska, ta je tak hezka!
DYEAR=1900
DGENRE=
TTITLE0=U Karlovych Var
TTITLE1=Bozena
TTITLE2=U sila
TTITLE3=U Zlateho soudku
TTITLE4=Ouvej, ach, ouvej
TTITLE5=Jeniku, Jeniku
TTITLE6=A ja mam holku v Kladne
TTITLE7=Beda
TTITLE8=U Kostelce nad Cernymi lesy
TTITLE9=Jindra
TTITLE10=Ptacku, ptacku
TTITLE11=Bezim, bezim na Hynka
TTITLE12=Myslivecky ples
TTITLE13=Gardedama
EXTD=
EXTT0=
EXTT1=
EXTT2=
EXTT3=
EXTT4=
EXTT5=
EXTT6=
EXTT7=
EXTT8=
EXTT9=
EXTT10=
EXTT11=
EXTT12=
EXTT13=
PLAYORDER=
